HIERARCHY
ROOT Hips
{
	OFFSET 0.000000 0.000000 0.000000
	CHANNELS 6 Xposition Yposition Zposition Xrotation Yrotation Zrotation
	JOINT LeftUpLeg_virtual
	{
		OFFSET 0.000000 0.000000 0.000000
		CHANNELS 3 Xrotation Yrotation Zrotation
		JOINT LeftUpLeg
		{
			OFFSET 10.205400 -3.823500 0.155100
			CHANNELS 3 Xrotation Yrotation Zrotation
			JOINT LeftLeg
			{
				OFFSET 0.708757 -12.982077 0.567790
				CHANNELS 3 Xrotation Yrotation Zrotation
				JOINT LeftFoot
				{
					OFFSET -0.708756 -10.717838 -2.184338
					CHANNELS 3 Xrotation Yrotation Zrotation
					JOINT LeftToeBase
					{
						OFFSET 0.108149 -7.191104 7.560241
						CHANNELS 3 Xrotation Yrotation Zrotation
						JOINT LeftToe_End
						{
							OFFSET 0.070230 0.081724 4.490308
							CHANNELS 3 Xrotation Yrotation Zrotation
							End Site
							{
								OFFSET 0 0 0
							}
						}
					}
				}
			}
		}
	}
	JOINT RightUpLeg_virtual
	{
		OFFSET 0.000000 0.000000 0.000000
		CHANNELS 3 Xrotation Yrotation Zrotation
		JOINT RightUpLeg
		{
			OFFSET -10.205400 -3.823500 0.005500
			CHANNELS 3 Xrotation Yrotation Zrotation
			JOINT RightLeg
			{
				OFFSET -0.708756 -12.982134 0.610632
				CHANNELS 3 Xrotation Yrotation Zrotation
				JOINT RightFoot
				{
					OFFSET 0.708754 -10.717769 -1.945823
					CHANNELS 3 Xrotation Yrotation Zrotation
					JOINT RightToeBase
					{
						OFFSET -0.108140 -7.191069 7.372968
						CHANNELS 3 Xrotation Yrotation Zrotation
						JOINT RightToe_End
						{
							OFFSET -0.070227 0.081735 4.479403
							CHANNELS 3 Xrotation Yrotation Zrotation
							End Site
							{
								OFFSET 0 0 0
							}
						}
					}
				}
			}
		}
	}
	JOINT Spine_virtual
	{
		OFFSET 0.000000 0.000000 0.000000
		CHANNELS 3 Xrotation Yrotation Zrotation
		JOINT Spine
		{
			OFFSET 0.000000 6.876099 0.125700
			CHANNELS 3 Xrotation Yrotation Zrotation
			JOINT Spine1
			{
				OFFSET 0.000000 5.730043 0.104720
				CHANNELS 3 Xrotation Yrotation Zrotation
				JOINT Spine1_split
				{
					OFFSET 0.000000 5.730043 0.104720
					CHANNELS 3 Xrotation Yrotation Zrotation
					JOINT Spine2
					{
						OFFSET 0.000000 5.730043 0.104720
						CHANNELS 3 Xrotation Yrotation Zrotation
						JOINT Neck_virtual
						{
							OFFSET 0.000000 0.000000 0.000000
							CHANNELS 3 Xrotation Yrotation Zrotation
							JOINT Neck
							{
								OFFSET 0.000000 10.314075 0.188496
								CHANNELS 3 Xrotation Yrotation Zrotation
								JOINT Head
								{
									OFFSET 0.000000 7.643700 -2.377400
									CHANNELS 3 Xrotation Yrotation Zrotation
									JOINT HeadTop_End
									{
										OFFSET 0.000000 43.788605 -13.619600
										CHANNELS 3 Xrotation Yrotation Zrotation
										End Site
										{
											OFFSET 0 0 0
										}
									}
								}
							}
						}
						JOINT LeftShoulder_virtual
						{
							OFFSET 0.000000 0.000000 0.000000
							CHANNELS 3 Xrotation Yrotation Zrotation
							JOINT LeftShoulder
							{
								OFFSET 2.196100 4.412489 0.087492
								CHANNELS 3 Xrotation Yrotation Zrotation
								JOINT LeftShoulder_split
								{
									OFFSET 2.196100 4.412489 0.087492
									CHANNELS 3 Xrotation Yrotation Zrotation
									JOINT LeftArm
									{
										OFFSET 8.771219 -2.981674 -0.026999
										CHANNELS 3 Xrotation Yrotation Zrotation
										JOINT LeftForeArm
										{
											OFFSET 8.512804 0.000000 -0.000000
											CHANNELS 3 Xrotation Yrotation Zrotation
											JOINT LeftHand
											{
												OFFSET 18.484802 0.000000 -0.000000
												CHANNELS 3 Xrotation Yrotation Zrotation
												End Site
												{
													OFFSET 0 0 0
												}
											}
										}
									}
								}
							}
						}
						JOINT RightShoulder_virtual
						{
							OFFSET 0.000000 0.000000 0.000000
							CHANNELS 3 Xrotation Yrotation Zrotation
							JOINT RightShoulder
							{
								OFFSET -2.196100 4.412496 0.070690
								CHANNELS 3 Xrotation Yrotation Zrotation
								JOINT RightShoulder_split
								{
									OFFSET -2.196100 4.412496 0.070690
									CHANNELS 3 Xrotation Yrotation Zrotation
									JOINT RightArm
									{
										OFFSET -8.771282 -2.981682 -0.094208
										CHANNELS 3 Xrotation Yrotation Zrotation
										JOINT RightForeArm
										{
											OFFSET -8.494598 0.000000 0.000000
											CHANNELS 3 Xrotation Yrotation Zrotation
											JOINT RightHand
											{
												OFFSET -18.483803 0.000000 0.000001
												CHANNELS 3 Xrotation Yrotation Zrotation
												End Site
												{
													OFFSET 0 0 0
												}
											}
										}
									}
								}
							}
						}
					}
				}
			}
		}
	}
}
MOTION
Frames: 8
Frame Time: 0.03333333
1.003604 24.608677 -20.180538 0.000000 0.000000 0.000000 21.504402 -76.595695 19.260572 -40.539215 -10.976259 34.277239 83.636677 5.042277 -0.853510 -31.675064 13.466657 -37.408215 -6.557498 -3.302846 3.102701 0.000000 0.000000 0.000000 24.638260 -76.347417 22.637970 -52.709888 4.684857 -19.329661 89.981807 17.025276 -7.085553 -42.057242 -5.692536 4.114237 -1.461282 1.133415 0.941742 0.000000 0.000000 0.000000 30.487502 -80.724831 28.574460 6.821528 11.552827 -4.310990 10.852675 18.066537 -6.414309 0.787548 -6.721449 2.473615 0.000000 0.000000 0.000000 12.485690 17.925855 -7.870547 -0.003484 2.868351 2.311903 5.187818 3.794388 -7.018566 0.000000 0.000000 0.000000 10.108501 18.292920 -7.203948 4.656394 -4.120290 0.293676 3.917948 3.908258 -0.500693 -77.791470 -29.213365 -59.571544 51.609244 -74.682217 49.200786 0.000000 0.000000 0.000000 9.308911 18.358664 -6.623330 5.458338 9.102056 -1.657318 -3.676115 6.146905 -4.590257 -47.191652 -6.116136 29.392841 -15.374612 46.847270 0.481868 0.000000 0.000000 0.000000 
1.106977 24.457502 -20.301834 0.000000 0.000000 0.000000 32.910303 -73.603560 29.798312 -47.080576 -12.432143 34.828846 85.524180 4.224220 -1.515172 -31.044914 12.189360 -35.787329 -7.176943 -3.638888 3.103645 0.000000 0.000000 0.000000 33.328209 -73.745552 31.212243 -54.928945 4.936465 -20.211682 90.199690 17.496592 -4.433976 -45.426079 -5.643424 3.231349 0.527146 0.814820 0.510420 0.000000 0.000000 0.000000 40.284333 -77.023292 37.557612 7.195649 11.239402 -4.137481 11.504127 17.372818 -6.518984 1.098847 -7.223677 2.388447 0.000000 0.000000 0.000000 12.424170 17.361943 -7.593576 -0.127558 4.900828 2.715735 2.031471 6.864186 -10.567657 0.000000 0.000000 0.000000 10.506422 17.616649 -7.367390 3.710832 -4.546048 -1.795171 2.431720 3.739362 -1.099478 -63.374286 -20.712378 -54.574977 49.644042 -71.451702 46.212076 0.000000 0.000000 0.000000 9.660159 17.876417 -6.478794 4.840767 9.022532 1.406938 -3.146920 6.386808 -5.087782 -41.751010 -12.119325 30.022069 -14.937801 46.701374 4.224830 0.000000 0.000000 0.000000 
1.181033 24.499214 -20.334183 0.000000 0.000000 0.000000 40.667100 -70.848425 37.172738 -53.036330 -13.256992 34.529693 86.359136 3.212053 -1.798305 -29.591371 10.630640 -33.432984 -7.745562 -3.992227 2.959771 0.000000 0.000000 0.000000 39.052245 -71.146037 37.132136 -56.873981 6.144551 -21.566903 89.684291 18.449873 -2.598505 -46.191979 -5.474415 5.046521 0.513511 0.573130 -0.085737 0.000000 0.000000 0.000000 44.544308 -73.336670 41.224665 7.274315 10.961187 -3.523227 12.032141 16.681315 -6.417800 1.355561 -7.360587 1.993490 0.000000 0.000000 0.000000 12.251469 16.746712 -7.107509 -0.578070 6.769041 2.978272 -0.273822 10.013723 -13.944657 0.000000 0.000000 0.000000 10.808725 16.919183 -7.315447 3.076747 -4.071571 -3.313290 1.428840 3.357959 -1.698166 -49.540492 -11.786922 -51.573468 39.480966 -67.990749 36.049267 0.000000 0.000000 0.000000 9.954776 17.307597 -6.217364 4.437403 8.981689 4.061698 -2.282170 7.271318 -5.091925 -34.866026 -19.211796 32.478516 -14.497621 47.390021 6.980047 0.000000 0.000000 0.000000 
1.263864 24.593142 -20.385769 0.000000 0.000000 0.000000 44.316552 -68.397159 41.034766 -57.915093 -13.292276 33.331327 86.337355 2.073238 -1.593247 -27.608663 9.347005 -31.129205 -7.424794 -4.203500 2.677193 0.000000 0.000000 0.000000 42.329138 -68.820590 40.838090 -58.017314 8.050023 -22.982448 88.620789 19.446238 -1.845573 -45.794680 -5.269592 8.537158 -0.443696 0.352567 -0.505801 0.000000 0.000000 0.000000 45.663711 -70.282401 42.162748 7.041311 10.696028 -2.645324 12.432630 16.019157 -6.194733 1.350632 -7.023353 1.775631 0.000000 0.000000 0.000000 11.995821 16.089296 -6.539151 -1.264020 8.358766 3.076233 -1.584571 12.775214 -16.849909 0.000000 0.000000 0.000000 11.048553 16.209495 -7.095860 2.702753 -3.095199 -4.186036 1.204049 2.650843 -2.208630 -36.829046 -4.020332 -51.691493 27.689531 -64.348175 24.768576 0.000000 0.000000 0.000000 10.285881 16.691901 -5.904148 4.146936 9.265780 6.529964 -1.487591 8.037455 -4.784281 -25.963181 -26.042091 37.190906 -13.890202 47.573326 8.511929 0.000000 0.000000 0.000000 
1.292119 24.678692 -20.363434 0.000000 0.000000 0.000000 44.050441 -66.294882 41.540616 -61.257173 -12.522914 31.424290 85.021580 0.992462 -1.045323 -25.189371 8.683827 -29.788692 -6.321706 -4.133884 2.232498 0.000000 0.000000 0.000000 43.101113 -66.660788 42.143702 -57.535109 10.035164 -24.220583 86.939415 19.593897 -1.796576 -45.662297 -5.142546 11.422595 -0.821694 0.112411 -0.522513 0.000000 0.000000 0.000000 44.302178 -67.963360 41.138796 6.651861 10.341828 -1.838407 12.704065 15.361867 -5.957161 1.240121 -6.206135 1.657598 0.000000 0.000000 0.000000 11.757246 15.391942 -5.997147 -2.079970 9.617175 3.031924 -2.014176 14.862787 -19.074572 0.000000 0.000000 0.000000 11.253445 15.486709 -6.820445 2.489725 -1.999765 -4.495312 1.527564 2.019516 -2.611325 -26.007677 1.677990 -54.795517 17.637814 -60.358252 15.220098 0.000000 0.000000 0.000000 10.691596 16.036611 -5.585618 3.834954 9.869728 8.821027 -0.853434 8.504500 -4.236139 -16.189281 -31.252401 43.273927 -13.164297 46.458885 8.871696 0.000000 0.000000 0.000000 
1.302608 24.811230 -20.354504 0.000000 0.000000 0.000000 41.434632 -64.546886 40.040434 -62.960793 -11.119291 28.814133 82.503139 0.209542 -0.249256 -22.468013 8.542145 -29.374916 -4.876690 -3.822664 1.625442 0.000000 0.000000 0.000000 41.499990 -64.585490 41.181365 -55.171140 11.318668 -25.313723 84.676874 18.663675 -1.809419 -46.101458 -5.291353 12.555344 -0.058876 -0.106477 -0.199922 0.000000 0.000000 0.000000 41.279963 -66.107475 38.831596 6.298751 9.876315 -1.330383 12.873970 14.709458 -5.782905 1.024520 -5.545794 1.853109 0.000000 0.000000 0.000000 11.537197 14.692268 -5.542026 -2.882419 10.544252 2.852149 -1.723036 16.249331 -20.594120 0.000000 0.000000 0.000000 11.414209 14.769328 -6.554907 2.383731 -1.012085 -4.471289 1.638746 1.352289 -2.962291 -17.682103 5.253249 -59.546286 10.622552 -56.080778 8.438261 0.000000 0.000000 0.000000 11.069485 15.367033 -5.308805 3.400540 10.676943 10.892625 -0.400067 8.306447 -3.564592 -7.728105 -34.213415 49.124186 -12.478173 44.055912 8.364960 0.000000 0.000000 0.000000 
1.219685 25.071098 -20.276436 0.000000 0.000000 0.000000 37.437107 -63.050938 37.264573 -62.996604 -9.318798 25.966313 79.247051 -0.203290 0.592827 -19.585168 8.452841 -29.253120 -3.495774 -3.426969 0.928383 0.000000 0.000000 0.000000 38.306764 -62.739427 38.688254 -51.211676 11.464735 -26.354058 81.823863 16.990510 -1.756149 -46.944051 -5.822176 12.386537 1.244449 -0.237361 0.237923 0.000000 0.000000 0.000000 36.690376 -64.295781 35.215366 6.062218 9.298831 -1.221923 12.955475 14.048047 -5.678128 0.989809 -5.283506 2.133976 0.000000 0.000000 0.000000 11.359793 14.031451 -5.238666 -3.544379 11.114827 2.554396 -1.063063 16.997812 -21.362516 0.000000 0.000000 0.000000 11.556504 14.071808 -6.324686 2.284810 -0.250672 -4.368129 1.547229 0.838706 -3.256743 -12.223093 7.517427 -64.457622 6.823057 -52.038009 4.481549 0.000000 0.000000 0.000000 11.330438 14.726694 -5.060039 2.876276 11.402332 12.563873 -0.080377 7.536868 -2.806502 -2.177873 -35.399617 53.348907 -12.065798 41.223914 7.552150 0.000000 0.000000 0.000000 
1.109309 25.510056 -20.196014 0.000000 0.000000 0.000000 32.958890 -61.921826 33.907637 -61.564033 -7.394616 23.377036 75.692730 -0.468915 1.335944 -16.800426 7.979392 -28.850777 -2.694648 -3.088315 0.274698 0.000000 0.000000 0.000000 33.849687 -61.105297 34.929724 -46.074134 10.346855 -27.403050 78.423727 14.946136 -1.606407 -47.529575 -6.678300 11.891897 2.079063 -0.243932 0.532707 0.000000 0.000000 0.000000 31.720116 -62.392883 31.185189 5.981366 8.659987 -1.456651 12.942787 13.398073 -5.625655 1.039961 -5.299325 2.279930 0.000000 0.000000 0.000000 11.240100 13.426391 -5.067458 -4.002647 11.376338 2.175752 -0.403148 17.357746 -21.452087 0.000000 0.000000 0.000000 11.641228 13.411872 -6.131540 2.210619 0.369317 -4.479909 0.915755 0.687103 -3.823669 -9.382080 9.147508 -68.294980 5.528614 -48.363087 2.721620 0.000000 0.000000 0.000000 11.402926 14.104241 -4.854336 2.306688 11.839171 13.674059 0.603791 6.527528 -2.047332 0.382775 -35.439232 55.700066 -11.849521 38.886528 6.722804 0.000000 0.000000 0.000000 
